ply
format ascii 1.0
comment Created by Blender 2.62 (sub 0) - www.blender.org, source file: 'camera.blend'
element vertex 153
property float x
property float y
property float z
property float nx
property float ny
property float nz
element face 70
property list uchar uint vertex_indices
end_header
0.243863 1.225982 1.972152 -0.083231 -0.845056 0.528160
0.000000 1.250000 1.972152 -0.083231 -0.845056 0.528160
0.000000 0.000000 -0.027848 -0.083231 -0.845056 0.528160
0.000000 0.000000 -0.027848 -0.246494 -0.812581 0.528160
0.478354 1.154849 1.972152 -0.246494 -0.812581 0.528160
0.243863 1.225982 1.972152 -0.246494 -0.812581 0.528160
0.000000 0.000000 -0.027848 -0.400284 -0.748879 0.528160
0.694463 1.039337 1.972152 -0.400284 -0.748879 0.528160
0.478354 1.154849 1.972152 -0.400284 -0.748879 0.528160
0.000000 0.000000 -0.027848 -0.538692 -0.656398 0.528160
0.883883 0.883883 1.972152 -0.538692 -0.656398 0.528160
0.694463 1.039337 1.972152 -0.538692 -0.656398 0.528160
0.000000 0.000000 -0.027848 -0.656398 -0.538692 0.528160
1.039337 0.694463 1.972152 -0.656398 -0.538692 0.528160
0.883883 0.883883 1.972152 -0.656398 -0.538692 0.528160
0.000000 0.000000 -0.027848 -0.748879 -0.400284 0.528160
1.154849 0.478354 1.972152 -0.748879 -0.400284 0.528160
1.039337 0.694463 1.972152 -0.748879 -0.400284 0.528160
0.000000 0.000000 -0.027848 -0.812581 -0.246494 0.528160
1.225982 0.243863 1.972152 -0.812581 -0.246494 0.528160
1.154849 0.478354 1.972152 -0.812581 -0.246494 0.528160
0.000000 0.000000 -0.027848 -0.845056 -0.083231 0.528160
1.250000 0.000000 1.972152 -0.845056 -0.083231 0.528160
1.225982 0.243863 1.972152 -0.845056 -0.083231 0.528160
0.000000 0.000000 -0.027848 -0.845056 0.083231 0.528160
1.225982 -0.243863 1.972152 -0.845056 0.083231 0.528160
1.250000 0.000000 1.972152 -0.845056 0.083231 0.528160
0.000000 0.000000 -0.027848 -0.812581 0.246494 0.528160
1.154849 -0.478354 1.972152 -0.812581 0.246494 0.528160
1.225982 -0.243863 1.972152 -0.812581 0.246494 0.528160
0.000000 0.000000 -0.027848 -0.748879 0.400284 0.528160
1.039337 -0.694463 1.972152 -0.748879 0.400284 0.528160
1.154849 -0.478354 1.972152 -0.748879 0.400284 0.528160
0.000000 0.000000 -0.027848 -0.656398 0.538692 0.528160
0.883883 -0.883883 1.972152 -0.656398 0.538692 0.528160
1.039337 -0.694463 1.972152 -0.656398 0.538692 0.528160
0.000000 0.000000 -0.027848 -0.538692 0.656398 0.528160
0.694463 -1.039337 1.972152 -0.538692 0.656398 0.528160
0.883883 -0.883883 1.972152 -0.538692 0.656398 0.528160
0.000000 0.000000 -0.027848 -0.400284 0.748879 0.528160
0.478354 -1.154850 1.972152 -0.400284 0.748879 0.528160
0.694463 -1.039337 1.972152 -0.400284 0.748879 0.528160
0.000000 0.000000 -0.027848 -0.246493 0.812581 0.528160
0.243863 -1.225982 1.972152 -0.246493 0.812581 0.528160
0.478354 -1.154850 1.972152 -0.246493 0.812581 0.528160
0.000000 0.000000 -0.027848 -0.083231 0.845056 0.528160
-0.000000 -1.250000 1.972152 -0.083231 0.845056 0.528160
0.243863 -1.225982 1.972152 -0.083231 0.845056 0.528160
0.000000 0.000000 -0.027848 0.083231 0.845056 0.528160
-0.243863 -1.225981 1.972152 0.083231 0.845056 0.528160
-0.000000 -1.250000 1.972152 0.083231 0.845056 0.528160
0.000000 0.000000 -0.027848 0.246494 0.812581 0.528160
-0.478355 -1.154849 1.972152 0.246494 0.812581 0.528160
-0.243863 -1.225981 1.972152 0.246494 0.812581 0.528160
0.000000 0.000000 -0.027848 0.400284 0.748879 0.528160
-0.694463 -1.039337 1.972152 0.400284 0.748879 0.528160
-0.478355 -1.154849 1.972152 0.400284 0.748879 0.528160
0.000000 0.000000 -0.027848 0.538692 0.656398 0.528160
-0.883884 -0.883883 1.972152 0.538692 0.656398 0.528160
-0.694463 -1.039337 1.972152 0.538692 0.656398 0.528160
0.000000 0.000000 -0.027848 0.656398 0.538691 0.528160
-1.039338 -0.694462 1.972152 0.656398 0.538691 0.528160
-0.883884 -0.883883 1.972152 0.656398 0.538691 0.528160
0.000000 0.000000 -0.027848 0.748879 0.400283 0.528160
-1.154850 -0.478353 1.972152 0.748879 0.400283 0.528160
-1.039338 -0.694462 1.972152 0.748879 0.400283 0.528160
0.000000 0.000000 -0.027848 0.812581 0.246493 0.528160
-1.225982 -0.243862 1.972152 0.812581 0.246493 0.528160
-1.154850 -0.478353 1.972152 0.812581 0.246493 0.528160
0.000000 0.000000 -0.027848 0.845056 0.083230 0.528160
-1.250000 0.000001 1.972152 0.845056 0.083230 0.528160
-1.225982 -0.243862 1.972152 0.845056 0.083230 0.528160
0.000000 0.000000 -0.027848 0.845056 -0.083232 0.528160
-1.225981 0.243864 1.972152 0.845056 -0.083232 0.528160
-1.250000 0.000001 1.972152 0.845056 -0.083232 0.528160
0.000000 0.000000 -0.027848 0.812581 -0.246495 0.528160
-1.154849 0.478356 1.972152 0.812581 -0.246495 0.528160
-1.225981 0.243864 1.972152 0.812581 -0.246495 0.528160
0.000000 0.000000 -0.027848 0.748879 -0.400285 0.528160
-1.039336 0.694464 1.972152 0.748879 -0.400285 0.528160
-1.154849 0.478356 1.972152 0.748879 -0.400285 0.528160
0.000000 0.000000 -0.027848 0.656397 -0.538693 0.528160
-0.883882 0.883885 1.972152 0.656397 -0.538693 0.528160
-1.039336 0.694464 1.972152 0.656397 -0.538693 0.528160
0.000000 0.000000 -0.027848 0.538691 -0.656398 0.528160
-0.694461 1.039338 1.972152 0.538691 -0.656398 0.528160
-0.883882 0.883885 1.972152 0.538691 -0.656398 0.528160
0.000000 0.000000 -0.027848 0.400283 -0.748880 0.528160
-0.478353 1.154850 1.972152 0.400283 -0.748880 0.528160
-0.694461 1.039338 1.972152 0.400283 -0.748880 0.528160
0.000000 0.000000 -0.027848 0.246492 -0.812581 0.528160
-0.243861 1.225982 1.972152 0.246492 -0.812581 0.528160
-0.478353 1.154850 1.972152 0.246492 -0.812581 0.528160
0.000000 0.000000 -0.027848 0.083230 -0.845056 0.528160
0.000000 1.250000 1.972152 0.083230 -0.845056 0.528160
-0.243861 1.225982 1.972152 0.083230 -0.845056 0.528160
0.000000 0.000000 1.972152 -0.000000 -0.000000 -1.000000
0.000000 1.250000 1.972152 -0.000000 -0.000000 -1.000000
0.243863 1.225982 1.972152 -0.000000 -0.000000 -1.000000
0.478354 1.154849 1.972152 -0.000000 0.000000 -1.000000
0.694463 1.039337 1.972152 -0.000000 0.000000 -1.000000
0.883883 0.883883 1.972152 -0.000000 0.000000 -1.000000
1.039337 0.694463 1.972152 -0.000000 0.000000 -1.000000
1.154849 0.478354 1.972152 -0.000000 0.000000 -1.000000
1.225982 0.243863 1.972152 -0.000000 0.000000 -1.000000
1.250000 0.000000 1.972152 -0.000000 0.000000 -1.000000
1.225982 -0.243863 1.972152 -0.000000 0.000000 -1.000000
1.154849 -0.478354 1.972152 0.000000 0.000000 -1.000000
1.039337 -0.694463 1.972152 0.000000 0.000000 -1.000000
0.883883 -0.883883 1.972152 0.000000 0.000000 -1.000000
0.694463 -1.039337 1.972152 0.000000 0.000000 -1.000000
0.478354 -1.154850 1.972152 0.000000 0.000000 -1.000000
0.243863 -1.225982 1.972152 0.000000 0.000000 -1.000000
-0.000000 -1.250000 1.972152 0.000000 0.000000 -1.000000
-0.243863 -1.225981 1.972152 0.000000 0.000000 -1.000000
-0.478355 -1.154849 1.972152 0.000000 0.000000 -1.000000
-0.694463 -1.039337 1.972152 0.000000 0.000000 -1.000000
-0.883884 -0.883883 1.972152 0.000000 0.000000 -1.000000
-1.039338 -0.694462 1.972152 0.000000 0.000000 -1.000000
-1.154850 -0.478353 1.972152 0.000000 0.000000 -1.000000
-1.225982 -0.243862 1.972152 0.000000 0.000000 -1.000000
-1.250000 0.000001 1.972152 0.000000 0.000000 -1.000000
-1.225981 0.243864 1.972152 0.000000 -0.000000 -1.000000
-1.154849 0.478356 1.972152 0.000000 -0.000000 -1.000000
-1.039336 0.694464 1.972152 0.000000 -0.000000 -1.000000
-0.883882 0.883885 1.972152 0.000000 -0.000000 -1.000000
-0.694461 1.039338 1.972152 0.000000 -0.000000 -1.000000
-0.478353 1.154850 1.972152 0.000000 -0.000000 -1.000000
-0.243861 1.225982 1.972152 0.000000 -0.000000 -1.000000
1.000000 1.000000 -1.000000 0.000000 0.000000 -1.000000
1.000000 -1.000000 -1.000000 0.000000 0.000000 -1.000000
-1.000000 -1.000000 -1.000000 0.000000 0.000000 -1.000000
-1.000000 1.000000 -1.000000 0.000000 0.000000 -1.000000
1.000000 0.999999 1.000000 0.000000 -0.000000 1.000000
-1.000000 1.000000 1.000000 0.000000 -0.000000 1.000000
-1.000000 -1.000000 1.000000 0.000000 -0.000000 1.000000
0.999999 -1.000001 1.000000 0.000000 -0.000000 1.000000
1.000000 1.000000 -1.000000 1.000000 -0.000000 0.000000
1.000000 0.999999 1.000000 1.000000 -0.000000 0.000000
0.999999 -1.000001 1.000000 1.000000 -0.000000 0.000000
1.000000 -1.000000 -1.000000 1.000000 -0.000000 0.000000
1.000000 -1.000000 -1.000000 -0.000000 -1.000000 -0.000000
0.999999 -1.000001 1.000000 -0.000000 -1.000000 -0.000000
-1.000000 -1.000000 1.000000 -0.000000 -1.000000 -0.000000
-1.000000 -1.000000 -1.000000 -0.000000 -1.000000 -0.000000
-1.000000 -1.000000 -1.000000 -1.000000 0.000000 -0.000000
-1.000000 -1.000000 1.000000 -1.000000 0.000000 -0.000000
-1.000000 1.000000 1.000000 -1.000000 0.000000 -0.000000
-1.000000 1.000000 -1.000000 -1.000000 0.000000 -0.000000
1.000000 0.999999 1.000000 0.000000 1.000000 0.000000
1.000000 1.000000 -1.000000 0.000000 1.000000 0.000000
-1.000000 1.000000 -1.000000 0.000000 1.000000 0.000000
-1.000000 1.000000 1.000000 0.000000 1.000000 0.000000
3 0 1 2
3 3 4 5
3 6 7 8
3 9 10 11
3 12 13 14
3 15 16 17
3 18 19 20
3 21 22 23
3 24 25 26
3 27 28 29
3 30 31 32
3 33 34 35
3 36 37 38
3 39 40 41
3 42 43 44
3 45 46 47
3 48 49 50
3 51 52 53
3 54 55 56
3 57 58 59
3 60 61 62
3 63 64 65
3 66 67 68
3 69 70 71
3 72 73 74
3 75 76 77
3 78 79 80
3 81 82 83
3 84 85 86
3 87 88 89
3 90 91 92
3 93 94 95
3 96 97 98
3 96 98 99
3 96 99 100
3 96 100 101
3 96 101 102
3 96 102 103
3 96 103 104
3 96 104 105
3 96 105 106
3 96 106 107
3 96 107 108
3 96 108 109
3 96 109 110
3 96 110 111
3 96 111 112
3 96 112 113
3 96 113 114
3 96 114 115
3 96 115 116
3 96 116 117
3 96 117 118
3 96 118 119
3 96 119 120
3 96 120 121
3 96 121 122
3 96 122 123
3 96 123 124
3 96 124 125
3 96 125 126
3 96 126 127
3 96 127 128
3 128 97 96
4 129 130 131 132
4 133 134 135 136
4 137 138 139 140
4 141 142 143 144
4 145 146 147 148
4 149 150 151 152
