ply
format ascii 1.0
comment Created by Blender 2.62 (sub 0) - www.blender.org, source file: ''
element vertex 178
property float x
property float y
property float z
property float nx
property float ny
property float nz
element face 70
property list uchar uint vertex_indices
end_header
0.162214 -1.005273 2.545801 0.094857 -0.960119 -0.263009
-0.032876 -1.024490 2.545591 0.094857 -0.960119 -0.263009
-0.032876 -0.009762 -1.158691 0.094857 -0.960119 -0.263009
-0.032876 -0.009762 -1.158691 0.280905 -0.923042 -0.262843
0.349807 -0.948362 2.546426 0.280905 -0.923042 -0.262843
0.162214 -1.005273 2.545801 0.280905 -0.923042 -0.262843
-0.032876 -0.009762 -1.158691 0.456096 -0.850330 -0.262518
0.522694 -0.855943 2.547440 0.456096 -0.850330 -0.262518
0.349807 -0.948362 2.546426 0.456096 -0.850330 -0.262518
-0.032876 -0.009762 -1.158691 0.613670 -0.744809 -0.262047
0.674230 -0.731567 2.548804 0.613670 -0.744809 -0.262047
0.522694 -0.855943 2.547440 0.613670 -0.744809 -0.262047
-0.032876 -0.009762 -1.158691 0.747558 -0.610575 -0.261449
0.798593 -0.580015 2.550467 0.747558 -0.610575 -0.261449
0.674230 -0.731567 2.548804 0.747558 -0.610575 -0.261449
-0.032876 -0.009762 -1.158691 0.852619 -0.452827 -0.260747
0.891003 -0.407111 2.552364 0.852619 -0.452827 -0.260747
0.798593 -0.580015 2.550467 0.852619 -0.452827 -0.260747
-0.032876 -0.009762 -1.158691 0.924834 -0.277665 -0.259971
0.947909 -0.219499 2.554422 0.924834 -0.277665 -0.259971
0.891003 -0.407111 2.552364 0.924834 -0.277665 -0.259971
-0.032876 -0.009762 -1.158691 0.961461 -0.091843 -0.259149
0.967124 -0.024389 2.556563 0.961461 -0.091843 -0.259149
0.947909 -0.219499 2.554422 0.961461 -0.091843 -0.259149
-0.032876 -0.009762 -1.158691 0.961129 0.097487 -0.258314
0.947909 0.170721 2.558703 0.961129 0.097487 -0.258314
0.967124 -0.024389 2.556563 0.961129 0.097487 -0.258314
-0.032876 -0.009762 -1.158691 0.923891 0.283056 -0.257499
0.891003 0.358333 2.560761 0.923891 0.283056 -0.257499
0.947909 0.170721 2.558703 0.923891 0.283056 -0.257499
-0.032876 -0.009762 -1.158691 0.851207 0.457750 -0.256733
0.798593 0.531237 2.562659 0.851207 0.457750 -0.256733
0.891003 0.358333 2.560761 0.851207 0.457750 -0.256733
-0.032876 -0.009762 -1.158691 0.745893 0.614885 -0.256047
0.674230 0.682789 2.564321 0.745893 0.614885 -0.256047
0.798593 0.531237 2.562659 0.745893 0.614885 -0.256047
-0.032876 -0.009762 -1.158691 0.612005 0.748457 -0.255464
0.522694 0.807164 2.565686 0.612005 0.748457 -0.255464
0.674230 0.682789 2.564321 0.612005 0.748457 -0.255464
-0.032876 -0.009762 -1.158691 0.454684 0.853366 -0.255008
0.349807 0.899584 2.566700 0.454684 0.853366 -0.255008
0.522694 0.807164 2.565686 0.454684 0.853366 -0.255008
-0.032876 -0.009762 -1.158691 0.279961 0.925609 -0.254694
0.162214 0.956495 2.567324 0.279961 0.925609 -0.254694
0.349807 0.899584 2.566700 0.279961 0.925609 -0.254694
-0.032876 -0.009762 -1.158691 0.094526 0.962433 -0.254534
-0.032877 0.975712 2.567535 0.094526 0.962433 -0.254534
0.162214 0.956495 2.567324 0.094526 0.962433 -0.254534
-0.032876 -0.009762 -1.158691 -0.094526 0.962433 -0.254534
-0.227967 0.956495 2.567324 -0.094526 0.962433 -0.254534
-0.032877 0.975712 2.567535 -0.094526 0.962433 -0.254534
-0.032876 -0.009762 -1.158691 -0.279961 0.925609 -0.254694
-0.415560 0.899583 2.566700 -0.279961 0.925609 -0.254694
-0.227967 0.956495 2.567324 -0.279961 0.925609 -0.254694
-0.032876 -0.009762 -1.158691 -0.454684 0.853366 -0.255008
-0.588447 0.807164 2.565686 -0.454684 0.853366 -0.255008
-0.415560 0.899583 2.566700 -0.454684 0.853366 -0.255008
-0.032876 -0.009762 -1.158691 -0.612005 0.748457 -0.255464
-0.739984 0.682789 2.564321 -0.612005 0.748457 -0.255464
-0.588447 0.807164 2.565686 -0.612005 0.748457 -0.255464
-0.032876 -0.009762 -1.158691 -0.745893 0.614885 -0.256047
-0.864346 0.531237 2.562659 -0.745893 0.614885 -0.256047
-0.739984 0.682789 2.564321 -0.745893 0.614885 -0.256047
-0.032876 -0.009762 -1.158691 -0.851207 0.457750 -0.256733
-0.956756 0.358332 2.560761 -0.851207 0.457750 -0.256733
-0.864346 0.531237 2.562659 -0.851207 0.457750 -0.256733
-0.032876 -0.009762 -1.158691 -0.923891 0.283055 -0.257499
-1.013662 0.170720 2.558703 -0.923891 0.283055 -0.257499
-0.956756 0.358332 2.560761 -0.923891 0.283055 -0.257499
-0.032876 -0.009762 -1.158691 -0.961130 0.097486 -0.258314
-1.032876 -0.024390 2.556563 -0.961130 0.097486 -0.258314
-1.013662 0.170720 2.558703 -0.961130 0.097486 -0.258314
-0.032876 -0.009762 -1.158691 -0.961461 -0.091844 -0.259149
-1.013661 -0.219500 2.554422 -0.961461 -0.091844 -0.259149
-1.032876 -0.024390 2.556563 -0.961461 -0.091844 -0.259149
-0.032876 -0.009762 -1.158691 -0.924833 -0.277666 -0.259971
-0.956755 -0.407112 2.552364 -0.924833 -0.277666 -0.259971
-1.013661 -0.219500 2.554422 -0.924833 -0.277666 -0.259971
-0.032876 -0.009762 -1.158691 -0.852618 -0.452828 -0.260747
-0.864345 -0.580016 2.550467 -0.852618 -0.452828 -0.260747
-0.956755 -0.407112 2.552364 -0.852618 -0.452828 -0.260747
-0.032876 -0.009762 -1.158691 -0.747557 -0.610576 -0.261449
-0.739982 -0.731568 2.548804 -0.747557 -0.610576 -0.261449
-0.864345 -0.580016 2.550467 -0.747557 -0.610576 -0.261449
-0.032876 -0.009762 -1.158691 -0.613669 -0.744810 -0.262047
-0.588445 -0.855943 2.547440 -0.613669 -0.744810 -0.262047
-0.739982 -0.731568 2.548804 -0.613669 -0.744810 -0.262047
-0.032876 -0.009762 -1.158691 -0.456095 -0.850330 -0.262518
-0.415558 -0.948363 2.546426 -0.456095 -0.850330 -0.262518
-0.588445 -0.855943 2.547440 -0.456095 -0.850330 -0.262518
-0.032876 -0.009762 -1.158691 -0.280903 -0.923042 -0.262843
-0.227965 -1.005274 2.545801 -0.280903 -0.923042 -0.262843
-0.415558 -0.948363 2.546426 -0.280903 -0.923042 -0.262843
-0.032876 -0.009762 -1.158691 -0.094857 -0.960119 -0.263009
-0.032876 -1.024490 2.545591 -0.094857 -0.960119 -0.263009
-0.227965 -1.005274 2.545801 -0.094857 -0.960119 -0.263009
-0.032876 -0.024389 2.556563 0.000000 -0.010970 0.999940
-0.032876 -1.024490 2.545591 0.000000 -0.010970 0.999940
0.162214 -1.005273 2.545801 0.000000 -0.010970 0.999940
0.349807 -0.948362 2.546426 -0.000000 -0.010970 0.999940
-0.032876 -0.024389 2.556563 0.000001 -0.010970 0.999940
0.349807 -0.948362 2.546426 0.000001 -0.010970 0.999940
0.522694 -0.855943 2.547440 0.000001 -0.010970 0.999940
-0.032876 -0.024389 2.556563 -0.000001 -0.010971 0.999940
0.522694 -0.855943 2.547440 -0.000001 -0.010971 0.999940
0.674230 -0.731567 2.548804 -0.000001 -0.010971 0.999940
0.674230 -0.731567 2.548804 0.000001 -0.010970 0.999940
0.798593 -0.580015 2.550467 0.000001 -0.010970 0.999940
-0.032876 -0.024389 2.556563 -0.000000 -0.010971 0.999940
0.798593 -0.580015 2.550467 -0.000000 -0.010971 0.999940
0.891003 -0.407111 2.552364 -0.000000 -0.010971 0.999940
0.891003 -0.407111 2.552364 -0.000000 -0.010970 0.999940
0.947909 -0.219499 2.554422 -0.000000 -0.010970 0.999940
0.967124 -0.024389 2.556563 -0.000000 -0.010970 0.999940
0.947909 0.170721 2.558703 -0.000000 -0.010970 0.999940
0.891003 0.358333 2.560761 0.000000 -0.010970 0.999940
0.891003 0.358333 2.560761 0.000000 -0.010971 0.999940
0.798593 0.531237 2.562659 0.000000 -0.010971 0.999940
-0.032876 -0.024389 2.556563 -0.000001 -0.010970 0.999940
0.798593 0.531237 2.562659 -0.000001 -0.010970 0.999940
0.674230 0.682789 2.564321 -0.000001 -0.010970 0.999940
-0.032876 -0.024389 2.556563 0.000001 -0.010971 0.999940
0.674230 0.682789 2.564321 0.000001 -0.010971 0.999940
0.522694 0.807164 2.565686 0.000001 -0.010971 0.999940
0.522694 0.807164 2.565686 -0.000001 -0.010970 0.999940
0.349807 0.899584 2.566700 -0.000001 -0.010970 0.999940
0.349807 0.899584 2.566700 0.000000 -0.010970 0.999940
0.162214 0.956495 2.567324 0.000000 -0.010970 0.999940
-0.032877 0.975712 2.567535 -0.000000 -0.010970 0.999940
-0.227967 0.956495 2.567324 0.000000 -0.010970 0.999940
-0.415560 0.899583 2.566700 -0.000000 -0.010970 0.999940
-0.415560 0.899583 2.566700 0.000001 -0.010970 0.999940
-0.588447 0.807164 2.565686 0.000001 -0.010970 0.999940
-0.588447 0.807164 2.565686 -0.000001 -0.010971 0.999940
-0.739984 0.682789 2.564321 -0.000001 -0.010971 0.999940
-0.739984 0.682789 2.564321 0.000001 -0.010970 0.999940
-0.864346 0.531237 2.562659 0.000001 -0.010970 0.999940
-0.864346 0.531237 2.562659 -0.000000 -0.010971 0.999940
-0.956756 0.358332 2.560761 -0.000000 -0.010971 0.999940
-0.956756 0.358332 2.560761 0.000000 -0.010970 0.999940
-1.013662 0.170720 2.558703 0.000000 -0.010970 0.999940
-1.032876 -0.024390 2.556563 0.000000 -0.010970 0.999940
-1.013661 -0.219500 2.554422 0.000000 -0.010970 0.999940
-0.956755 -0.407112 2.552364 0.000000 -0.010970 0.999940
-0.956755 -0.407112 2.552364 0.000000 -0.010971 0.999940
-0.864345 -0.580016 2.550467 0.000000 -0.010971 0.999940
-0.864345 -0.580016 2.550467 -0.000001 -0.010970 0.999940
-0.739982 -0.731568 2.548804 -0.000001 -0.010970 0.999940
-0.739982 -0.731568 2.548804 0.000001 -0.010971 0.999940
-0.588445 -0.855943 2.547440 0.000001 -0.010971 0.999940
-0.588445 -0.855943 2.547440 -0.000001 -0.010970 0.999940
-0.415558 -0.948363 2.546426 -0.000001 -0.010970 0.999940
-0.415558 -0.948363 2.546426 0.000000 -0.010970 0.999940
-0.227965 -1.005274 2.545801 0.000000 -0.010970 0.999940
1.000000 1.000000 -1.000000 0.000000 0.000000 -1.000000
1.000000 -1.000000 -1.000000 0.000000 0.000000 -1.000000
-1.000000 -1.000000 -1.000000 0.000000 0.000000 -1.000000
-1.000000 1.000000 -1.000000 0.000000 0.000000 -1.000000
1.000000 0.999999 1.000000 0.000000 -0.000000 1.000000
-1.000000 1.000000 1.000000 0.000000 -0.000000 1.000000
-1.000000 -1.000000 1.000000 0.000000 -0.000000 1.000000
0.999999 -1.000001 1.000000 0.000000 -0.000000 1.000000
1.000000 1.000000 -1.000000 1.000000 -0.000000 0.000000
1.000000 0.999999 1.000000 1.000000 -0.000000 0.000000
0.999999 -1.000001 1.000000 1.000000 -0.000000 0.000000
1.000000 -1.000000 -1.000000 1.000000 -0.000000 0.000000
1.000000 -1.000000 -1.000000 -0.000000 -1.000000 -0.000000
0.999999 -1.000001 1.000000 -0.000000 -1.000000 -0.000000
-1.000000 -1.000000 1.000000 -0.000000 -1.000000 -0.000000
-1.000000 -1.000000 -1.000000 -0.000000 -1.000000 -0.000000
-1.000000 -1.000000 -1.000000 -1.000000 0.000000 -0.000000
-1.000000 -1.000000 1.000000 -1.000000 0.000000 -0.000000
-1.000000 1.000000 1.000000 -1.000000 0.000000 -0.000000
-1.000000 1.000000 -1.000000 -1.000000 0.000000 -0.000000
1.000000 0.999999 1.000000 0.000000 1.000000 0.000000
1.000000 1.000000 -1.000000 0.000000 1.000000 0.000000
-1.000000 1.000000 -1.000000 0.000000 1.000000 0.000000
-1.000000 1.000000 1.000000 0.000000 1.000000 0.000000
3 0 1 2
3 3 4 5
3 6 7 8
3 9 10 11
3 12 13 14
3 15 16 17
3 18 19 20
3 21 22 23
3 24 25 26
3 27 28 29
3 30 31 32
3 33 34 35
3 36 37 38
3 39 40 41
3 42 43 44
3 45 46 47
3 48 49 50
3 51 52 53
3 54 55 56
3 57 58 59
3 60 61 62
3 63 64 65
3 66 67 68
3 69 70 71
3 72 73 74
3 75 76 77
3 78 79 80
3 81 82 83
3 84 85 86
3 87 88 89
3 90 91 92
3 93 94 95
3 96 97 98
3 96 98 99
3 100 101 102
3 103 104 105
3 100 106 107
3 108 109 110
3 96 111 112
3 96 112 113
3 96 113 114
3 96 114 115
3 108 116 117
3 118 119 120
3 121 122 123
3 118 124 125
3 96 126 127
3 96 127 128
3 96 128 129
3 96 129 130
3 100 131 132
3 103 133 134
3 100 135 136
3 108 137 138
3 96 139 140
3 96 140 141
3 96 141 142
3 96 142 143
3 108 144 145
3 118 146 147
3 121 148 149
3 118 150 151
3 96 152 153
3 153 97 96
4 154 155 156 157
4 158 159 160 161
4 162 163 164 165
4 166 167 168 169
4 170 171 172 173
4 174 175 176 177
