ply
format ascii 1.0
comment Created by Blender 2.62 (sub 0) - www.blender.org, source file: ''
element vertex 129
property float x
property float y
property float z
property float nx
property float ny
property float nz
element face 64
property list uchar uint vertex_indices
end_header
0.195090 0.980785 -1.000000 0.087754 0.890977 0.445488
0.000000 1.000000 -1.000000 0.087754 0.890977 0.445488
0.000000 0.000000 1.000000 0.087754 0.890977 0.445488
0.000000 0.000000 1.000000 0.259888 0.856737 0.445488
0.382683 0.923880 -1.000000 0.259888 0.856737 0.445488
0.195090 0.980785 -1.000000 0.259888 0.856737 0.445488
0.000000 0.000000 1.000000 0.422036 0.789573 0.445488
0.555570 0.831470 -1.000000 0.422036 0.789573 0.445488
0.382683 0.923880 -1.000000 0.422036 0.789573 0.445488
0.000000 0.000000 1.000000 0.567965 0.692067 0.445488
0.707107 0.707107 -1.000000 0.567965 0.692067 0.445488
0.555570 0.831470 -1.000000 0.567965 0.692067 0.445488
0.000000 0.000000 1.000000 0.692067 0.567965 0.445488
0.831470 0.555570 -1.000000 0.692067 0.567965 0.445488
0.707107 0.707107 -1.000000 0.692067 0.567965 0.445488
0.000000 0.000000 1.000000 0.789573 0.422036 0.445488
0.923880 0.382683 -1.000000 0.789573 0.422036 0.445488
0.831470 0.555570 -1.000000 0.789573 0.422036 0.445488
0.000000 0.000000 1.000000 0.856737 0.259888 0.445488
0.980785 0.195090 -1.000000 0.856737 0.259888 0.445488
0.923880 0.382683 -1.000000 0.856737 0.259888 0.445488
0.000000 0.000000 1.000000 0.890977 0.087754 0.445488
1.000000 0.000000 -1.000000 0.890977 0.087754 0.445488
0.980785 0.195090 -1.000000 0.890977 0.087754 0.445488
0.000000 0.000000 1.000000 0.890977 -0.087753 0.445488
0.980785 -0.195090 -1.000000 0.890977 -0.087753 0.445488
1.000000 0.000000 -1.000000 0.890977 -0.087753 0.445488
0.000000 0.000000 1.000000 0.856737 -0.259888 0.445488
0.923880 -0.382683 -1.000000 0.856737 -0.259888 0.445488
0.980785 -0.195090 -1.000000 0.856737 -0.259888 0.445488
0.000000 0.000000 1.000000 0.789573 -0.422035 0.445488
0.831470 -0.555570 -1.000000 0.789573 -0.422035 0.445488
0.923880 -0.382683 -1.000000 0.789573 -0.422035 0.445488
0.000000 0.000000 1.000000 0.692067 -0.567965 0.445488
0.707107 -0.707107 -1.000000 0.692067 -0.567965 0.445488
0.831470 -0.555570 -1.000000 0.692067 -0.567965 0.445488
0.000000 0.000000 1.000000 0.567965 -0.692067 0.445488
0.555570 -0.831470 -1.000000 0.567965 -0.692067 0.445488
0.707107 -0.707107 -1.000000 0.567965 -0.692067 0.445488
0.000000 0.000000 1.000000 0.422036 -0.789573 0.445488
0.382683 -0.923880 -1.000000 0.422036 -0.789573 0.445488
0.555570 -0.831470 -1.000000 0.422036 -0.789573 0.445488
0.000000 0.000000 1.000000 0.259888 -0.856737 0.445488
0.195090 -0.980785 -1.000000 0.259888 -0.856737 0.445488
0.382683 -0.923880 -1.000000 0.259888 -0.856737 0.445488
0.000000 0.000000 1.000000 0.087753 -0.890977 0.445488
-0.000000 -1.000000 -1.000000 0.087753 -0.890977 0.445488
0.195090 -0.980785 -1.000000 0.087753 -0.890977 0.445488
0.000000 0.000000 1.000000 -0.087754 -0.890977 0.445488
-0.195091 -0.980785 -1.000000 -0.087754 -0.890977 0.445488
-0.000000 -1.000000 -1.000000 -0.087754 -0.890977 0.445488
0.000000 0.000000 1.000000 -0.259889 -0.856737 0.445488
-0.382684 -0.923879 -1.000000 -0.259889 -0.856737 0.445488
-0.195091 -0.980785 -1.000000 -0.259889 -0.856737 0.445488
0.000000 0.000000 1.000000 -0.422036 -0.789573 0.445488
-0.555571 -0.831469 -1.000000 -0.422036 -0.789573 0.445488
-0.382684 -0.923879 -1.000000 -0.422036 -0.789573 0.445488
0.000000 0.000000 1.000000 -0.567965 -0.692066 0.445488
-0.707107 -0.707106 -1.000000 -0.567965 -0.692066 0.445488
-0.555571 -0.831469 -1.000000 -0.567965 -0.692066 0.445488
0.000000 0.000000 1.000000 -0.692067 -0.567964 0.445488
-0.831470 -0.555570 -1.000000 -0.692067 -0.567964 0.445488
-0.707107 -0.707106 -1.000000 -0.692067 -0.567964 0.445488
0.000000 0.000000 1.000000 -0.789574 -0.422035 0.445488
-0.923880 -0.382683 -1.000000 -0.789574 -0.422035 0.445488
-0.831470 -0.555570 -1.000000 -0.789574 -0.422035 0.445488
0.000000 0.000000 1.000000 -0.856737 -0.259887 0.445488
-0.980785 -0.195089 -1.000000 -0.856737 -0.259887 0.445488
-0.923880 -0.382683 -1.000000 -0.856737 -0.259887 0.445488
0.000000 0.000000 1.000000 -0.890977 -0.087753 0.445488
-1.000000 0.000001 -1.000000 -0.890977 -0.087753 0.445488
-0.980785 -0.195089 -1.000000 -0.890977 -0.087753 0.445488
0.000000 0.000000 1.000000 -0.890977 0.087754 0.445488
-0.980785 0.195091 -1.000000 -0.890977 0.087754 0.445488
-1.000000 0.000001 -1.000000 -0.890977 0.087754 0.445488
0.000000 0.000000 1.000000 -0.856737 0.259889 0.445488
-0.923879 0.382684 -1.000000 -0.856737 0.259889 0.445488
-0.980785 0.195091 -1.000000 -0.856737 0.259889 0.445488
0.000000 0.000000 1.000000 -0.789573 0.422037 0.445488
-0.831469 0.555571 -1.000000 -0.789573 0.422037 0.445488
-0.923879 0.382684 -1.000000 -0.789573 0.422037 0.445488
0.000000 0.000000 1.000000 -0.692066 0.567966 0.445488
-0.707106 0.707108 -1.000000 -0.692066 0.567966 0.445488
-0.831469 0.555571 -1.000000 -0.692066 0.567966 0.445488
0.000000 0.000000 1.000000 -0.567964 0.692067 0.445488
-0.555569 0.831470 -1.000000 -0.567964 0.692067 0.445488
-0.707106 0.707108 -1.000000 -0.567964 0.692067 0.445488
0.000000 0.000000 1.000000 -0.422035 0.789574 0.445488
-0.382682 0.923880 -1.000000 -0.422035 0.789574 0.445488
-0.555569 0.831470 -1.000000 -0.422035 0.789574 0.445488
0.000000 0.000000 1.000000 -0.259887 0.856737 0.445488
-0.195089 0.980786 -1.000000 -0.259887 0.856737 0.445488
-0.382682 0.923880 -1.000000 -0.259887 0.856737 0.445488
0.000000 0.000000 1.000000 -0.087753 0.890977 0.445488
0.000000 1.000000 -1.000000 -0.087753 0.890977 0.445488
-0.195089 0.980786 -1.000000 -0.087753 0.890977 0.445488
0.000000 0.000000 -1.000000 -0.000000 -0.000000 -1.000000
0.000000 1.000000 -1.000000 -0.000000 -0.000000 -1.000000
0.195090 0.980785 -1.000000 -0.000000 -0.000000 -1.000000
0.382683 0.923880 -1.000000 -0.000000 0.000000 -1.000000
0.555570 0.831470 -1.000000 -0.000000 0.000000 -1.000000
0.707107 0.707107 -1.000000 -0.000000 0.000000 -1.000000
0.831470 0.555570 -1.000000 -0.000000 0.000000 -1.000000
0.923880 0.382683 -1.000000 -0.000000 0.000000 -1.000000
0.980785 0.195090 -1.000000 -0.000000 0.000000 -1.000000
1.000000 0.000000 -1.000000 -0.000000 0.000000 -1.000000
0.980785 -0.195090 -1.000000 -0.000000 0.000000 -1.000000
0.923880 -0.382683 -1.000000 0.000000 0.000000 -1.000000
0.831470 -0.555570 -1.000000 0.000000 0.000000 -1.000000
0.707107 -0.707107 -1.000000 0.000000 0.000000 -1.000000
0.555570 -0.831470 -1.000000 0.000000 0.000000 -1.000000
0.382683 -0.923880 -1.000000 0.000000 0.000000 -1.000000
0.195090 -0.980785 -1.000000 0.000000 0.000000 -1.000000
-0.000000 -1.000000 -1.000000 0.000000 0.000000 -1.000000
-0.195091 -0.980785 -1.000000 0.000000 0.000000 -1.000000
-0.382684 -0.923879 -1.000000 0.000000 0.000000 -1.000000
-0.555571 -0.831469 -1.000000 0.000000 0.000000 -1.000000
-0.707107 -0.707106 -1.000000 0.000000 0.000000 -1.000000
-0.831470 -0.555570 -1.000000 0.000000 0.000000 -1.000000
-0.923880 -0.382683 -1.000000 0.000000 0.000000 -1.000000
-0.980785 -0.195089 -1.000000 0.000000 0.000000 -1.000000
-1.000000 0.000001 -1.000000 0.000000 0.000000 -1.000000
-0.980785 0.195091 -1.000000 0.000000 -0.000000 -1.000000
-0.923879 0.382684 -1.000000 0.000000 -0.000000 -1.000000
-0.831469 0.555571 -1.000000 0.000000 -0.000000 -1.000000
-0.707106 0.707108 -1.000000 0.000000 -0.000000 -1.000000
-0.555569 0.831470 -1.000000 0.000000 -0.000000 -1.000000
-0.382682 0.923880 -1.000000 0.000000 -0.000000 -1.000000
-0.195089 0.980786 -1.000000 0.000000 -0.000000 -1.000000
3 0 1 2
3 3 4 5
3 6 7 8
3 9 10 11
3 12 13 14
3 15 16 17
3 18 19 20
3 21 22 23
3 24 25 26
3 27 28 29
3 30 31 32
3 33 34 35
3 36 37 38
3 39 40 41
3 42 43 44
3 45 46 47
3 48 49 50
3 51 52 53
3 54 55 56
3 57 58 59
3 60 61 62
3 63 64 65
3 66 67 68
3 69 70 71
3 72 73 74
3 75 76 77
3 78 79 80
3 81 82 83
3 84 85 86
3 87 88 89
3 90 91 92
3 93 94 95
3 96 97 98
3 96 98 99
3 96 99 100
3 96 100 101
3 96 101 102
3 96 102 103
3 96 103 104
3 96 104 105
3 96 105 106
3 96 106 107
3 96 107 108
3 96 108 109
3 96 109 110
3 96 110 111
3 96 111 112
3 96 112 113
3 96 113 114
3 96 114 115
3 96 115 116
3 96 116 117
3 96 117 118
3 96 118 119
3 96 119 120
3 96 120 121
3 96 121 122
3 96 122 123
3 96 123 124
3 96 124 125
3 96 125 126
3 96 126 127
3 96 127 128
3 128 97 96
